# xmcd
#
# Track frame offsets: 
#        150
#        12837
#        27620
#        40214
#        57765
#        71094
#        88334
#        104760
#        117111
#        134449
#        148431
#        161622
#
# Disc length: 2385 seconds
#
# Revision: 0
# Processed by: cddbd v1.5.2PL0 Copyright (c) Steve Scherf et al.
# Submitted via: ExactAudioCopy v1.0b1
#
DISCID=b5094f0c
DTITLE=Yngström Clas and Big Tex Three - Svenneblues 2013
DYEAR=2013
DGENRE=Blues
TTITLE0=Bara faller omkull
TTITLE1=Ja' bord' ha fattat
TTITLE2=Svenneblues
TTITLE3=En vissen ros
TTITLE4=Ont i mej
TTITLE5=Ondskan
TTITLE6=Onda tankar
TTITLE7=Handen på hjärtat
TTITLE8=Himlen gråter
TTITLE9=Hur kul har vi nu
TTITLE10=Va' ska du ha mej till
TTITLE11=120 kg himmelsk fröjd
EXTD=
EXTT0=
EXTT1=
EXTT2=
EXTT3=
EXTT4=
EXTT5=
EXTT6=
EXTT7=
EXTT8=
EXTT9=
EXTT10=
EXTT11=
PLAYORDER=
